<svg xmlns="http://www.w3.org/2000/svg" viewBox="0 0 21.46 13.66"><defs><style>.cls-1{fill:#fff;}</style></defs><g id="Layer_2" data-name="Layer 2"><g id="Layer_1-2" data-name="Layer 1"><path class="cls-1" d="M7.89,13.14a3.66,3.66,0,0,0,1.5-.66,3.81,3.81,0,0,0,.95-1.05,4,4,0,0,0,.59-2.13,3.51,3.51,0,0,0-.52-2A3,3,0,0,0,8.87,6.17a3,3,0,0,0,1-.76,3,3,0,0,0,.62-2,3.37,3.37,0,0,0-.62-2A4.06,4.06,0,0,0,6.44,0H0V13.33H6A9.31,9.31,0,0,0,7.89,13.14ZM2.66,2.31h2.9a4.92,4.92,0,0,1,1.57.21,1.19,1.19,0,0,1,.72,1.23,1.26,1.26,0,0,1-.54,1.17,2.68,2.68,0,0,1-1.41.33H2.66Zm0,8.7V7.46H5.94a3.37,3.37,0,0,1,1.33.22,1.43,1.43,0,0,1,.85,1.43,1.68,1.68,0,0,1-.88,1.67A3.25,3.25,0,0,1,5.89,11Z"/><path class="cls-1" d="M13.19,12.45a5.36,5.36,0,0,0,3.47,1.21,4.76,4.76,0,0,0,3.7-1.44,3.19,3.19,0,0,0,1-1.78H18.69a2.09,2.09,0,0,1-.53.68,2.19,2.19,0,0,1-1.43.45,2.59,2.59,0,0,1-1.42-.37,2.36,2.36,0,0,1-1-2.08h7.17a11.69,11.69,0,0,0-.08-1.95,4.72,4.72,0,0,0-.79-2,4,4,0,0,0-1.7-1.46,5.56,5.56,0,0,0-2.32-.46A4.76,4.76,0,0,0,13,4.58,5.35,5.35,0,0,0,11.68,8.5,4.77,4.77,0,0,0,13.19,12.45ZM15,5.9a2,2,0,0,1,1.54-.57,2.27,2.27,0,0,1,1.52.53,2.19,2.19,0,0,1,.69,1.56H14.34A2.59,2.59,0,0,1,15,5.9Z"/><rect class="cls-1" x="13.5" y="0.77" width="5.79" height="1.34"/></g></g></svg>