<svg xmlns="http://www.w3.org/2000/svg" viewBox="0 0 21.12 21.12"><defs><style>.cls-1{fill:#fff;}</style></defs><g id="Layer_2" data-name="Layer 2"><g id="Layer_1-2" data-name="Layer 1"><path class="cls-1" d="M10.56,0A10.56,10.56,0,1,0,21.12,10.56,10.56,10.56,0,0,0,10.56,0Zm0,1.84a8.68,8.68,0,0,1,5.32,1.82A10.63,10.63,0,0,1,11.49,6.9,39.16,39.16,0,0,0,8.42,2.11,8.9,8.9,0,0,1,10.56,1.84Zm-3.93,1A40.1,40.1,0,0,1,9.74,7.52a28,28,0,0,1-7.65,1A8.73,8.73,0,0,1,6.63,2.79ZM1.84,10.56c0-.07,0-.15,0-.22A29.61,29.61,0,0,0,10.6,9.17c.21.42.41.84.59,1.26a13.62,13.62,0,0,0-7.33,5.7A8.66,8.66,0,0,1,1.84,10.56Zm8.72,8.72a8.63,8.63,0,0,1-5.35-1.85,11.88,11.88,0,0,1,6.68-5.3,34,34,0,0,1,1.8,6.57A8.79,8.79,0,0,1,10.56,19.28Zm4.84-1.47a35.74,35.74,0,0,0-1.69-6.07,17.56,17.56,0,0,1,5.46.18A8.73,8.73,0,0,1,15.4,17.81ZM13,10c-.21-.49-.44-1-.68-1.47a12.45,12.45,0,0,0,4.89-3.6,8.76,8.76,0,0,1,2,5.14A19.08,19.08,0,0,0,13,10Z"/></g></g></svg>